<svg xmlns="http://www.w3.org/2000/svg" xmlns:svgjs="http://svgjs.com/svgjs" xmlns:xlink="http://www.w3.org/1999/xlink" width="288" height="288"><svg xmlns="http://www.w3.org/2000/svg" width="288" height="288" version="1.0" viewBox="0 0 512 512"><g fill="#fff" class="color000 svgShape" transform="matrix(.1 0 0 -.1 0 512)"><path d="M102 5099c-78-39-118-133-92-215 10-31 127-154 603-631l592-593-56 0c-82 0-168-18-222-48-63-34-132-109-165-180l-27-57 0-815 0-815 31-65c39-83 101-145 184-184l65-31 468-3 468-3 895-715c492-394 910-722 929-730 44-18 87-18 132 1 48 20 71 41 94 87 18 34 19 63 19 383 0 190 3 345 7 345 4 0 192-184 418-409 403-402 411-410 457-416 87-13 161 24 197 97 25 52 27 95 6 146-22 52-4793 4826-4850 4853-53 25-100 24-153-2zM3774 5106c-27-12-1584-1245-1641-1300l-23-21 955-955 955-955 0 1553c0 1504-1 1554-19 1590-23 46-46 67-94 87-44 18-92 19-133 1z" class="color000 svgShape"/></g></svg></svg>