<svg xmlns="http://www.w3.org/2000/svg" xmlns:svgjs="http://svgjs.com/svgjs" xmlns:xlink="http://www.w3.org/1999/xlink" width="288" height="288"><svg xmlns="http://www.w3.org/2000/svg" width="288" height="288" version="1.0" viewBox="0 0 512 512"><g fill="#fff" class="color000 svgShape" transform="matrix(.1 0 0 -.1 0 512)"><path d="M2846 4943c-10-3-400-310-867-684l-849-678-442-3c-437-3-444-3-489-26-74-36-125-87-161-160l-33-67 0-765 0-765 33-67c36-73 87-124 161-160 45-23 52-23 489-26l442-3 848-678c467-373 859-681 873-684 75-20 156 12 194 77l25 43 0 2263 0 2263-25 43c-38 65-121 97-199 77zM4249 4290c-71-21-119-87-119-165 0-60 7-72 104-180 154-171 247-307 337-491 233-478 270-1026 103-1533-93-282-227-509-440-746-97-108-104-120-104-180 0-115 101-194 212-165 34 9 60 29 120 90 291 299 512 714 603 1135 165 764-54 1558-591 2134-91 98-149 124-225 101z" class="color000 svgShape"/><path d="M3770 3807 c-77 -25 -120 -83 -120 -160 0 -62 16 -91 100 -183 225-248 342 -556 342 -904 0 -345 -115 -652 -338 -899 -89 -100 -104 -126 -104
-186 0 -81 48 -144 125 -164 48 -12 102 -2 143 27 42 31 168 180 235 280 65
95 151 268 190 377 72 203 107 483 88 698 -34 382 -165 695 -410 982 -107 126
-170 159 -251 132z" class="color000 svgShape"/></g></svg></svg>